<svg xmlns="http://www.w3.org/2000/svg" xmlns:xlink="http://www.w3.org/1999/xlink" width="147.996" height="35.143" viewBox="0 0 147.996 35.143">
  <defs>
    <linearGradient id="linear-gradient" x1="0.92" y1="-0.963" x2="-0.377" y2="-1.639" gradientUnits="objectBoundingBox">
      <stop offset="0" stop-color="#00a0ff"/>
      <stop offset="0.007" stop-color="#00a1ff"/>
      <stop offset="0.26" stop-color="#00beff"/>
      <stop offset="0.512" stop-color="#00d2ff"/>
      <stop offset="0.76" stop-color="#00dfff"/>
      <stop offset="1" stop-color="#00e3ff"/>
    </linearGradient>
    <linearGradient id="linear-gradient-2" x1="1.076" y1="-5.2" x2="-1.312" y2="-5.2" gradientUnits="objectBoundingBox">
      <stop offset="0" stop-color="#ffe000"/>
      <stop offset="0.409" stop-color="#ffbd00"/>
      <stop offset="0.775" stop-color="orange"/>
      <stop offset="1" stop-color="#ff9c00"/>
    </linearGradient>
    <linearGradient id="linear-gradient-3" x1="0.861" y1="-3.865" x2="-0.498" y2="-5.633" gradientUnits="objectBoundingBox">
      <stop offset="0" stop-color="#ff3a44"/>
      <stop offset="1" stop-color="#c31162"/>
    </linearGradient>
    <linearGradient id="linear-gradient-4" x1="-0.185" y1="-1.153" x2="0.422" y2="-1.94" gradientUnits="objectBoundingBox">
      <stop offset="0" stop-color="#32a071"/>
      <stop offset="0.069" stop-color="#2da771"/>
      <stop offset="0.476" stop-color="#15cf74"/>
      <stop offset="0.801" stop-color="#06e775"/>
      <stop offset="1" stop-color="#00f076"/>
    </linearGradient>
  </defs>
  <g id="Group_7" data-name="Group 7" transform="translate(-206.6 -713.029)">
    <path id="Path_9" data-name="Path 9" d="M84.183,88.556a3.218,3.218,0,0,1-.973,2.554,3.825,3.825,0,0,1-5.594,0,3.959,3.959,0,0,1-1.216-2.8,3.75,3.75,0,0,1,1.216-2.8,3.959,3.959,0,0,1,2.8-1.216,7.117,7.117,0,0,1,1.581.243,2.78,2.78,0,0,1,1.216.851l-.73.73a2.505,2.505,0,0,0-2.067-.851,2.667,2.667,0,0,0-2.067.851,3.24,3.24,0,0,0,0,4.378,2.848,2.848,0,0,0,2.067.851A2.931,2.931,0,0,0,82.6,90.5a1.867,1.867,0,0,0,.608-1.581h-2.8v-.973h3.648A1.628,1.628,0,0,1,84.183,88.556Zm5.837-3.04H86.493V88.07h3.283v.73H86.493v2.432H90.02v.851h-4.5V84.422h4.5Zm4.256,6.567H93.3V85.516H91.114v-.973h5.229v.851H94.155V92.2h.122Zm5.837,0V84.422h.973v7.661Zm5.472,0h-.973V85.516h-2.067v-.973h5.229v.851h-2.189Zm12.161-.851a3.959,3.959,0,0,1-2.8,1.216,3.75,3.75,0,0,1-2.8-1.216,3.959,3.959,0,0,1-1.216-2.8,4.19,4.19,0,0,1,1.216-2.8,3.23,3.23,0,0,1,2.675-1.338,3.75,3.75,0,0,1,2.8,1.216,3.959,3.959,0,0,1,1.216,2.8A4.593,4.593,0,0,1,117.746,91.232Zm-4.986-.73a2.936,2.936,0,0,0,4.135,0,3.24,3.24,0,0,0,0-4.378,2.936,2.936,0,0,0-4.135,0,3.24,3.24,0,0,0,0,4.378Zm7.54,1.581V84.422h1.216l3.648,6.08v-6.08h.973v7.661h-.973l-4.013-6.324v6.324Z" transform="translate(170.33 628.85)" fill="#4f5362" stroke="#4f5362" stroke-width="0.241"/>
    <path id="Path_10" data-name="Path 10" d="M110.78,101.08a5.374,5.374,0,0,0-5.472,5.472,5.45,5.45,0,0,0,5.472,5.472,5.472,5.472,0,1,0,0-10.945Zm0,8.634a3.293,3.293,0,1,1,3.04-3.283A3.074,3.074,0,0,1,110.78,109.714Zm-11.8-8.634a5.374,5.374,0,0,0-5.472,5.472,5.45,5.45,0,0,0,5.472,5.472,5.374,5.374,0,0,0,5.472-5.472A5.446,5.446,0,0,0,98.984,101.08Zm0,8.634a3.293,3.293,0,1,1,3.04-3.283A3.148,3.148,0,0,1,98.984,109.714Zm-14.228-7.053v2.311H90.35a4.394,4.394,0,0,1-1.338,2.919,5.807,5.807,0,0,1-4.256,1.7,6.024,6.024,0,0,1-5.959-6.2,6.1,6.1,0,0,1,5.959-6.2A5.654,5.654,0,0,1,88.89,98.77l1.581-1.581A9.212,9.212,0,0,0,84.513,95,8.46,8.46,0,0,0,76,103.512a8.617,8.617,0,0,0,8.513,8.513,7.5,7.5,0,0,0,7.9-7.783,5.451,5.451,0,0,0-.122-1.459Zm57.885,1.824a4.853,4.853,0,0,0-4.5-3.4,5.155,5.155,0,0,0-5.107,5.472,5.374,5.374,0,0,0,5.472,5.472,5.308,5.308,0,0,0,4.5-2.311L141.06,108.5a3.173,3.173,0,0,1-2.675,1.459,3.022,3.022,0,0,1-2.675-1.581l7.3-3.04Zm-7.3,1.824a3.124,3.124,0,0,1,2.8-3.283,2.354,2.354,0,0,1,2.067,1.216Zm-6.08,5.351h2.311V95.608h-2.311Zm-3.77-9.364a4.076,4.076,0,0,0-2.919-1.216,5.325,5.325,0,0,0-5.229,5.472,5.4,5.4,0,0,0,5.229,5.472,4.076,4.076,0,0,0,2.919-1.216h.122v.73c0,2.067-1.216,3.283-2.919,3.283a3.1,3.1,0,0,1-2.8-1.946l-2.067.851a5.243,5.243,0,0,0,4.864,3.283c2.8,0,5.107-1.581,5.107-5.716v-9.85h-2.189Zm-2.8,7.418a3.148,3.148,0,0,1-3.04-3.283,3.006,3.006,0,1,1,5.959,0A3.055,3.055,0,0,1,122.7,109.714ZM153.95,95.608h-5.716V111.66h2.311v-6.2h3.405a4.934,4.934,0,1,0,0-9.85Zm0,7.661h-3.405V97.8h3.405a2.825,2.825,0,0,1,2.8,2.8A2.9,2.9,0,0,1,153.95,103.269Zm14.714-2.189a4.364,4.364,0,0,0-4.256,2.554l2.067.851a2.44,2.44,0,0,1,2.189-1.216,2.218,2.218,0,0,1,2.432,2.067v.122a5.4,5.4,0,0,0-2.432-.608c-2.311,0-4.5,1.338-4.5,3.648,0,2.189,1.946,3.527,4.013,3.527a3.446,3.446,0,0,0,3.04-1.581h.122v1.216h2.311v-6.2C173.529,102.54,171.34,101.08,168.665,101.08Zm-.243,8.634c-.73,0-1.946-.486-1.946-1.338,0-1.216,1.338-1.7,2.432-1.7a3.889,3.889,0,0,1,2.189.608A2.572,2.572,0,0,1,168.421,109.714Zm13.5-8.391-2.8,6.932H179l-2.8-6.932h-2.675l4.256,9.729-2.432,5.472h2.432l6.567-15.079H181.92Zm-21.4,10.337h2.311V95.608h-2.311Z" transform="translate(170.244 631.162)" fill="#4f5362"/>
    <path id="Path_11" data-name="Path 11" d="M44.008,85.1a2.784,2.784,0,0,0-.608,1.7v28.213a2.205,2.205,0,0,0,.608,1.7l.122.122,15.809-15.809v-.243Z" transform="translate(163.2 629.023)" fill="url(#linear-gradient)"/>
    <path id="Path_12" data-name="Path 12" d="M62.329,104.5,57.1,99.272v-.243L62.329,93.8h.122l6.324,3.527c1.7.973,1.7,2.675,0,3.648Z" transform="translate(166.16 630.903)" fill="url(#linear-gradient-2)"/>
    <path id="Path_13" data-name="Path 13" d="M65.3,103.472,59.831,98,43.9,113.931a2.143,2.143,0,0,0,2.675.122Z" transform="translate(163.308 631.81)" fill="url(#linear-gradient-3)"/>
    <path id="Path_14" data-name="Path 14" d="M65.3,95.68l-18.728-10.7A2.011,2.011,0,0,0,43.9,85.1l15.931,15.931Z" transform="translate(163.308 628.901)" fill="url(#linear-gradient-4)"/>
    <path id="Path_15" data-name="Path 15" d="M65.16,102.5,46.554,113.08c-.973.608-1.946.608-2.432,0L44,113.2l.122.122a1.834,1.834,0,0,0,2.432,0Z" transform="translate(163.33 632.783)" opacity="0.2"/>
    <path id="Path_16" data-name="Path 16" d="M44.008,113.909a3.55,3.55,0,0,1-.608-1.7v.122a2.205,2.205,0,0,0,.608,1.7ZM71.734,99.8l-6.445,3.648.122.122,6.324-3.527A2.356,2.356,0,0,0,73.072,98.1,2.6,2.6,0,0,1,71.734,99.8Z" transform="translate(163.2 631.832)" opacity="0.12"/>
    <path id="Path_17" data-name="Path 17" d="M46.663,85.336,71.592,99.564c.851.486,1.338.973,1.338,1.581A2.525,2.525,0,0,0,71.592,99.2L46.663,84.971C44.96,84,43.5,84.85,43.5,86.917v.122C43.38,84.971,44.96,84.242,46.663,85.336Z" transform="translate(163.22 628.908)" fill="#fff" opacity="0.25"/>
  </g>
</svg>
