<svg xmlns="http://www.w3.org/2000/svg" width="74" height="74" viewBox="0 0 74 74">
  <g id="Group_18" data-name="Group 18" transform="translate(-1096 -3064)">
    <circle id="Ellipse_16" data-name="Ellipse 16" cx="37" cy="37" r="37" transform="translate(1096 3064)" fill="#f2f0fb"/>
    <g id="download" transform="translate(1119.06 3086.946)">
      <path id="Path_29" data-name="Path 29" d="M26.1,46.042a.748.748,0,0,0-.751.751v4.758H2.6v-4.8a.751.751,0,0,0-1.5,0v5.175a1.217,1.217,0,0,0,1.294,1.085H25.473a1.188,1.188,0,0,0,1.294-1.085V46.751A.624.624,0,0,0,26.1,46.042Z" transform="translate(0 -26.103)" fill="#ed1111"/>
      <path id="Path_30" data-name="Path 30" d="M24.049,18.728a1.991,1.991,0,0,0,1.294.543,1.767,1.767,0,0,0,1.252-.5l3.214-3.088a.738.738,0,0,0-1.043-1.043l-2.713,2.629V1.951a.751.751,0,1,0-1.5,0V17.226l-2.713-2.671A.738.738,0,1,0,20.794,15.6l3.255,3.13Z" transform="translate(-11.347)" fill="#ed1111"/>
    </g>
  </g>
</svg>
