<svg xmlns="http://www.w3.org/2000/svg" width="74" height="74" viewBox="0 0 74 74">
  <g id="Group_17" data-name="Group 17" transform="translate(-1096 -3226)">
    <circle id="Ellipse_17" data-name="Ellipse 17" cx="37" cy="37" r="37" transform="translate(1096 3226)" fill="#f2f0fb"/>
    <g id="favorite" transform="translate(1121.716 3251.697)">
      <path id="Path_31" data-name="Path 31" d="M20.379,3.266a5.56,5.56,0,0,0-8.132,0,6.005,6.005,0,0,0-.965,1.4,5.964,5.964,0,0,0-.967-1.4,5.564,5.564,0,0,0-8.132,0,6.244,6.244,0,0,0,0,8.53l9.1,9.311,9.1-9.309A6.234,6.234,0,0,0,20.379,3.266Z" transform="translate(0 0)" fill="none" stroke="#ed1111" stroke-linecap="round" stroke-linejoin="round" stroke-width="2"/>
    </g>
  </g>
</svg>
