<svg xmlns="http://www.w3.org/2000/svg" xmlns:xlink="http://www.w3.org/1999/xlink" width="167" height="167" viewBox="0 0 167 167">
  <defs>
    <filter id="Ellipse_9" x="0" y="0" width="167" height="167" filterUnits="userSpaceOnUse">
      <feOffset dx="3" dy="5" input="SourceAlpha"/>
      <feGaussianBlur stdDeviation="9" result="blur"/>
      <feFlood flood-color="#ff0606" flood-opacity="0.361"/>
      <feComposite operator="in" in2="blur"/>
      <feComposite in="SourceGraphic"/>
    </filter>
    <linearGradient id="linear-gradient" x1="0.439" y1="0.119" x2="0.5" y2="1" gradientUnits="objectBoundingBox">
      <stop offset="0" stop-color="#fff"/>
      <stop offset="1" stop-color="#d8d8d8" stop-opacity="0.31"/>
    </linearGradient>
    <filter id="Ellipse_10" x="8" y="8" width="152" height="152" filterUnits="userSpaceOnUse">
      <feOffset dx="3" dy="5" input="SourceAlpha"/>
      <feGaussianBlur stdDeviation="9" result="blur-2"/>
      <feFlood flood-color="#ff0606" flood-opacity="0.361"/>
      <feComposite operator="in" in2="blur-2"/>
      <feComposite in="SourceGraphic"/>
    </filter>
  </defs>
  <g id="Group_29" data-name="Group 29" transform="translate(-531 -1699)">
    <g id="Group_11" data-name="Group 11" transform="translate(-184 -774)">
      <g transform="matrix(1, 0, 0, 1, 715, 2473)" filter="url(#Ellipse_9)">
        <circle id="Ellipse_9-2" data-name="Ellipse 9" cx="56.5" cy="56.5" r="56.5" transform="translate(24 22)" fill="#fff"/>
      </g>
      <g transform="matrix(1, 0, 0, 1, 715, 2473)" filter="url(#Ellipse_10)">
        <circle id="Ellipse_10-2" data-name="Ellipse 10" cx="49" cy="49" r="49" transform="translate(32 30)" fill="url(#linear-gradient)"/>
      </g>
    </g>
    <g id="phone-call" transform="translate(592.826 1759.826)">
      <path id="Path_20" data-name="Path 20" d="M41.08,15.821a.741.741,0,0,1-.741-.741,12.612,12.612,0,0,0-12.6-12.6.741.741,0,1,1,0-1.482,14.1,14.1,0,0,1,14.08,14.08A.741.741,0,0,1,41.08,15.821Z" transform="translate(-6.473)" fill="#e70000"/>
      <path id="Path_21" data-name="Path 21" d="M35.152,17.893a.741.741,0,0,1-.741-.741,6.677,6.677,0,0,0-6.67-6.67.741.741,0,1,1,0-1.482,8.161,8.161,0,0,1,8.152,8.152A.741.741,0,0,1,35.152,17.893Z" transform="translate(-6.473 -2.071)" fill="#e70000"/>
      <path id="Path_22" data-name="Path 22" d="M23.77,22.139l-2.657,3.322A28.038,28.038,0,0,1,11.147,15.5l3.322-2.657a2.258,2.258,0,0,0,.652-2.678L12.093,3.343A2.257,2.257,0,0,0,9.461,2.074L3.7,3.568A2.272,2.272,0,0,0,2.021,6.076a33.5,33.5,0,0,0,28.51,28.51,2.269,2.269,0,0,0,2.507-1.675l1.495-5.765a2.258,2.258,0,0,0-1.269-2.632l-6.816-3.024a2.257,2.257,0,0,0-2.678.648Z" transform="translate(0 -0.259)" fill="#e70000"/>
    </g>
  </g>
</svg>
