<svg xmlns="http://www.w3.org/2000/svg" xmlns:xlink="http://www.w3.org/1999/xlink" width="167" height="167" viewBox="0 0 167 167">
  <defs>
    <filter id="Ellipse_9" x="0" y="0" width="167" height="167" filterUnits="userSpaceOnUse">
      <feOffset dx="3" dy="5" input="SourceAlpha"/>
      <feGaussianBlur stdDeviation="9" result="blur"/>
      <feFlood flood-color="#ff0606" flood-opacity="0.361"/>
      <feComposite operator="in" in2="blur"/>
      <feComposite in="SourceGraphic"/>
    </filter>
    <linearGradient id="linear-gradient" x1="0.439" y1="0.119" x2="0.5" y2="1" gradientUnits="objectBoundingBox">
      <stop offset="0" stop-color="#fff"/>
      <stop offset="1" stop-color="#d8d8d8" stop-opacity="0.31"/>
    </linearGradient>
    <filter id="Ellipse_10" x="8" y="8" width="152" height="152" filterUnits="userSpaceOnUse">
      <feOffset dx="3" dy="5" input="SourceAlpha"/>
      <feGaussianBlur stdDeviation="9" result="blur-2"/>
      <feFlood flood-color="#ff0606" flood-opacity="0.361"/>
      <feComposite operator="in" in2="blur-2"/>
      <feComposite in="SourceGraphic"/>
    </filter>
  </defs>
  <g id="Group_32" data-name="Group 32" transform="translate(-1149 -1700)">
    <g id="Group_12" data-name="Group 12" transform="translate(434 -773)">
      <g transform="matrix(1, 0, 0, 1, 715, 2473)" filter="url(#Ellipse_9)">
        <circle id="Ellipse_9-2" data-name="Ellipse 9" cx="56.5" cy="56.5" r="56.5" transform="translate(24 22)" fill="#fff"/>
      </g>
      <g transform="matrix(1, 0, 0, 1, 715, 2473)" filter="url(#Ellipse_10)">
        <circle id="Ellipse_10-2" data-name="Ellipse 10" cx="49" cy="49" r="49" transform="translate(32 30)" fill="url(#linear-gradient)"/>
      </g>
    </g>
    <g id="chevron-circle-up" transform="translate(1202.231 1751.231)">
      <path id="Path_28" data-name="Path 28" d="M8,27.269A19.269,19.269,0,1,1,27.269,46.537,19.265,19.265,0,0,1,8,27.269Zm17.948-8.85L15.42,28.947a1.857,1.857,0,0,0,0,2.634L16.741,32.9a1.857,1.857,0,0,0,2.634,0l7.894-7.894L35.163,32.9a1.857,1.857,0,0,0,2.634,0l1.321-1.321a1.857,1.857,0,0,0,0-2.634L28.589,18.419A1.866,1.866,0,0,0,25.948,18.419Z" fill="#e70000"/>
    </g>
  </g>
</svg>
