<svg xmlns="http://www.w3.org/2000/svg" width="144.259" height="36.358" viewBox="0 0 144.259 36.358">
  <g id="Group_8" data-name="Group 8" transform="translate(-532.352 -1356.9)">
    <g id="XMLID_22_" transform="translate(532.352 1357.451)">
      <g id="XMLID_23_" transform="translate(0 0)">
        <path id="XMLID_25_" d="M64.565,49.835a7.2,7.2,0,0,1,3.443-6.06,7.642,7.642,0,0,0-5.784-3.168c-2.479-.275-4.82,1.515-5.922,1.515-1.377,0-3.168-1.515-5.371-1.377a7.5,7.5,0,0,0-6.473,3.994c-2.754,4.82-.689,11.982,1.928,15.976,1.377,2.066,3.03,3.994,4.958,3.994,1.928-.138,2.754-1.377,5.1-1.377s3.168,1.377,5.1,1.1c2.2,0,3.443-2.066,4.82-3.856a14.355,14.355,0,0,0,2.2-4.545C68.7,56.308,64.565,54.655,64.565,49.835Z" transform="translate(-43.152 -33.171)" fill="#4f5362"/>
        <path id="XMLID_24_" d="M57.087,40.158A7.213,7.213,0,0,0,58.739,35.2a7.634,7.634,0,0,0-4.682,2.341,7.314,7.314,0,0,0-1.653,4.82A5.5,5.5,0,0,0,57.087,40.158Z" transform="translate(-39.668 -35.2)" fill="#4f5362"/>
      </g>
    </g>
    <path id="Path_18" data-name="Path 18" d="M80.231,62.069H73.482l-1.653,4.82H68.8l6.611-18.041h3.03l6.473,18.041h-3.03Zm-6.2-2.341h5.509L76.925,51.74Zm24.927.689c0,4.132-2.2,6.611-5.509,6.611a4.527,4.527,0,0,1-4.132-2.341v6.473H86.7V53.668H89.32v2.2a4.8,4.8,0,0,1,4.132-2.341C96.619,53.53,98.961,56.147,98.961,60.416Zm-2.754,0c0-2.617-1.377-4.545-3.443-4.545-1.928,0-3.443,1.79-3.443,4.545s1.377,4.545,3.443,4.545C94.829,64.685,96.206,63.033,96.206,60.416Zm17.215,0c0,4.132-2.2,6.611-5.509,6.611a4.527,4.527,0,0,1-4.132-2.341v6.473h-2.617V53.668h2.479v2.2a4.8,4.8,0,0,1,4.132-2.341C111.08,53.53,113.421,56.147,113.421,60.416Zm-2.892,0c0-2.617-1.377-4.545-3.443-4.545-1.928,0-3.443,1.79-3.443,4.545s1.377,4.545,3.443,4.545C109.29,64.685,110.529,63.033,110.529,60.416Zm12.257,1.377c.138,1.79,1.928,3.03,4.269,3.03s3.994-1.1,3.994-2.892c0-1.377-.964-2.2-3.305-2.892l-2.341-.551c-3.305-.826-4.82-2.341-4.82-4.82,0-3.168,2.617-5.371,6.473-5.371s6.473,2.2,6.473,5.371h-2.617c-.138-1.79-1.653-2.892-3.856-2.892s-3.581,1.1-3.581,2.617c0,1.377.964,2.066,3.305,2.617l1.928.551c3.581.826,5.1,2.341,5.1,4.958,0,3.305-2.617,5.509-7.024,5.509-3.994,0-6.611-2.066-6.748-5.371C120.17,62.069,122.786,61.793,122.786,61.793Zm16.94-11.155v3.168H142.2v2.066h-2.479v7.3a1.461,1.461,0,0,0,1.653,1.653h.826v2.2c-.275,0-.826.138-1.515.138-2.617,0-3.581-.964-3.581-3.443v-7.85h-1.928v-2.2h1.79V50.5Zm3.856,9.778c0-4.132,2.479-6.611,6.2-6.611,3.856,0,6.2,2.617,6.2,6.611,0,4.132-2.479,6.611-6.2,6.611S143.582,64.548,143.582,60.416Zm9.778,0c0-2.892-1.377-4.545-3.443-4.545-2.2,0-3.443,1.653-3.443,4.545s1.377,4.545,3.443,4.545C151.983,64.823,153.36,63.17,153.36,60.416Zm4.958-6.748H160.8v2.2a3.011,3.011,0,0,1,3.168-2.341,2.344,2.344,0,0,1,.964.138v2.479a2.368,2.368,0,0,0-1.1-.138c-1.653,0-2.754,1.1-2.754,3.03v7.85h-2.617C158.318,66.889,158.318,53.668,158.318,53.668Zm19.143,9.365c-.275,2.341-2.617,3.994-5.647,3.994-3.856,0-6.2-2.479-6.2-6.611s2.341-6.886,6.2-6.886c3.581,0,5.922,2.479,5.922,6.473v.964h-9.5v.275c0,2.341,1.377,3.718,3.443,3.718a3,3,0,0,0,3.03-1.79A18.457,18.457,0,0,1,177.461,63.033Zm-9.227-3.994h6.611a3.074,3.074,0,0,0-3.168-3.305C169.749,55.733,168.509,56.973,168.234,59.039ZM73.758,35.213c2.479,0,4.132,1.515,4.132,4.269s-1.515,4.269-4.132,4.269H70.59V35.075h3.168ZM72.105,42.65h1.653c1.79,0,2.754-1.1,2.754-3.168s-.964-3.168-2.754-3.168H72.105Zm7.3-1.928c0-2.2,1.1-3.305,3.168-3.305a3.151,3.151,0,0,1,3.168,3.305c0,2.2-1.1,3.305-3.168,3.305A3,3,0,0,1,79.4,40.722Zm4.82,0c0-1.515-.689-2.341-1.79-2.341s-1.79.826-1.79,2.341.689,2.341,1.79,2.341A2.255,2.255,0,0,0,84.225,40.722ZM93.59,43.89H92.212l-1.377-4.82H90.7L89.32,43.89H87.943l-1.79-6.473H87.53l1.1,4.958h.138l1.377-4.958h1.1l1.377,4.958h.138l1.1-4.958h1.377C95.518,37.417,93.59,43.89,93.59,43.89Zm3.443-6.473h1.1v.964h.138a1.915,1.915,0,0,1,1.928-1.1c1.515,0,2.341.826,2.341,2.479V43.89h-1.377V39.9a1.343,1.343,0,0,0-1.377-1.515,1.485,1.485,0,0,0-1.515,1.653V43.89H96.757C97.033,43.89,97.033,37.417,97.033,37.417Zm7.575-2.617h1.377v9.227h-1.377Zm3.03,5.922c0-2.2,1.1-3.305,3.168-3.305a3.151,3.151,0,0,1,3.168,3.305c0,2.2-1.1,3.305-3.168,3.305A3.074,3.074,0,0,1,107.637,40.722Zm4.958,0c0-1.515-.689-2.341-1.79-2.341s-1.79.826-1.79,2.341.689,2.341,1.79,2.341A2.255,2.255,0,0,0,112.6,40.722Zm2.617,1.239q0-1.653,2.479-2.066l1.79-.138v-.551c0-.689-.551-.964-1.377-.964a1.52,1.52,0,0,0-1.377.689h-1.377c.138-1.1,1.1-1.79,2.617-1.79,1.653,0,2.479.826,2.479,2.2V43.89h-1.1v-.964h-.138a1.952,1.952,0,0,1-1.928.964A1.784,1.784,0,0,1,115.212,41.961Zm4.132-.413V41l-1.653.138c-.826,0-1.377.275-1.377.964a.976.976,0,0,0,1.1.964C118.655,42.788,119.343,42.375,119.343,41.548Zm3.03-.826c0-2.066.964-3.305,2.617-3.305a2.319,2.319,0,0,1,1.928,1.1h.138V34.8h1.377v9.227h-1.1v-.964h-.138a2.047,2.047,0,0,1-1.928,1.1C123.337,44.027,122.373,42.65,122.373,40.722Zm1.239,0c0,1.377.689,2.2,1.79,2.2s1.79-.826,1.79-2.2-.689-2.2-1.79-2.2C124.3,38.381,123.613,39.207,123.613,40.722Zm10.191,0c0-2.2,1.1-3.305,3.168-3.305a3.151,3.151,0,0,1,3.168,3.305c0,2.2-1.1,3.305-3.168,3.305A3,3,0,0,1,133.8,40.722Zm4.82,0c0-1.515-.689-2.341-1.79-2.341s-1.79.826-1.79,2.341.689,2.341,1.79,2.341A2.255,2.255,0,0,0,138.624,40.722Zm2.892-3.305h1.1v.964h.138a1.915,1.915,0,0,1,1.928-1.1c1.515,0,2.341.826,2.341,2.479V43.89h-1.377V39.9a1.343,1.343,0,0,0-1.377-1.515,1.485,1.485,0,0,0-1.515,1.653V43.89h-1.377Zm12.808-1.79v1.653h1.515v1.1h-1.515v3.305c0,.689.275.964.964.964h.551v.964h-.689c-1.515,0-1.928-.551-1.928-1.79V38.381h-.964v-1.1h.964V35.626Zm3.305-.826h1.377v3.718h.138a1.915,1.915,0,0,1,1.928-1.1,2.211,2.211,0,0,1,2.341,2.479v4.132h-1.377V40.171a1.343,1.343,0,0,0-1.377-1.515,1.591,1.591,0,0,0-1.653,1.653v3.856H157.63C157.767,44.165,157.63,34.8,157.63,34.8Zm13.083,7.437a2.636,2.636,0,0,1-2.754,1.79,3.045,3.045,0,0,1-3.03-3.305c0-2.2,1.1-3.443,3.03-3.443,1.79,0,3.03,1.1,3.03,3.305v.551h-4.682a1.63,1.63,0,0,0,1.653,1.79c.826,0,1.377-.275,1.515-.826C169.473,41.961,170.713,42.237,170.713,42.237Zm-4.545-2.2h3.305a1.591,1.591,0,0,0-1.653-1.653A1.773,1.773,0,0,0,166.168,40.033Z" transform="translate(498.875 1322.1)" fill="#4f5362"/>
  </g>
</svg>
